<svg width="81" height="81" viewBox="0 0 81 81" fill="none" xmlns="http://www.w3.org/2000/svg">
<path d="M40.5 0C62.873 0 81 18.127 81 40.5C81 62.873 62.873 81 40.5 81C18.127 81 0 62.873 0 40.5C0 18.127 18.127 0 40.5 0ZM35.7804 23.4508L48.1101 35.2742H18.2903C16.1183 35.2742 14.371 37.0216 14.371 39.1935V41.8064C14.371 43.9784 16.1183 45.7258 18.2903 45.7258H48.1101L35.7804 57.5492C34.1964 59.0679 34.1637 61.5992 35.7151 63.1506L37.5115 64.9306C39.0466 66.4657 41.5288 66.4657 43.0476 64.9306L64.7183 43.2762C66.2534 41.7411 66.2534 39.2589 64.7183 37.7401L43.0476 16.053C41.5125 14.5179 39.0302 14.5179 37.5115 16.053L35.7151 17.8331C34.1637 19.4008 34.1964 21.9321 35.7804 23.4508Z" fill="white"/>
</svg>
