<svg width="100" height="100" viewBox="0 0 100 100" fill="none" xmlns="http://www.w3.org/2000/svg">
<circle cx="50" cy="50" r="50" fill="white"/>
<path d="M50.4361 39.06C46.6054 39.06 43.4998 42.7595 43.4998 47.3233C43.4998 51.8868 46.6052 55.5865 50.4361 55.5865C54.2669 55.5865 57.3725 51.887 57.3725 47.3233C57.3725 42.7595 54.2671 39.06 50.4361 39.06ZM50.4361 51.6515C48.4295 51.6515 46.8028 49.7136 46.8028 47.3231C46.8028 44.9326 48.4295 42.9947 50.4361 42.9947C52.4428 42.9947 54.0695 44.9326 54.0695 47.3231C54.0695 49.7136 52.4428 51.6515 50.4361 51.6515Z" fill="#09620C"/>
<path d="M78.0991 20.1724L33.0129 14.0735C31.263 13.7771 29.4901 14.3857 28.141 15.7459C26.792 16.992 25.9273 18.8391 25.7463 20.8611L24.9206 28.9276H22.3606C18.7273 28.9276 16.0022 32.764 16.0022 37.0924V77.3263C15.9107 81.4538 18.6452 84.8884 22.1101 84.9974C22.1936 85.0001 22.2772 85.0006 22.3606 84.9993H67.6945C71.3279 84.9993 74.6309 81.6547 74.6309 77.3263V75.7524C75.7574 75.4931 76.826 74.9571 77.7688 74.1785C79.1067 72.8366 79.9633 70.9362 80.1634 68.8665L83.962 28.9276C84.3492 24.5893 81.7358 20.6866 78.0991 20.1724ZM71.3279 77.3263C71.3279 79.4905 69.5112 81.0644 67.6945 81.0644H22.3606C20.7195 81.1219 19.3501 79.5835 19.3019 77.6285C19.2994 77.5278 19.3005 77.4271 19.3053 77.3263V70.0469L32.1045 58.8325C33.6421 57.4262 35.8078 57.5512 37.2242 59.1276L46.225 68.5712C47.5918 69.9384 49.3124 70.7027 51.097 70.7354C52.4923 70.7558 53.8647 70.3131 55.0607 69.4566L71.328 58.2422V77.3263H71.3279ZM71.3279 53.6188L53.3264 66.112C51.7806 67.2029 49.824 67.0054 48.4543 65.6202L39.3711 56.078C36.7678 53.4132 32.9628 53.2497 30.2052 55.6845L19.3053 65.1282V37.0924C19.3053 34.9282 20.5439 32.8625 22.3606 32.8625H67.6945C69.6354 32.9584 71.2028 34.7833 71.3279 37.0924V53.6188V53.6188ZM80.6621 28.3965C80.661 28.4095 80.6601 28.4226 80.6588 28.4356L76.7778 68.3745C76.7844 69.4101 76.388 70.3909 75.7042 71.0305C75.3739 71.424 74.6307 71.6208 74.6307 71.8175V37.0924C74.5003 32.611 71.4575 29.0291 67.6944 28.9276H28.2235L28.9667 21.2547C29.1279 20.2611 29.564 19.3607 30.2053 18.6969C30.9296 18.1004 31.8052 17.8223 32.6827 17.9099L77.6864 24.1072C79.5021 24.3127 80.8345 26.233 80.6621 28.3965Z" fill="#09620C"/>
</svg>
