<svg width="36" height="36" viewBox="0 0 36 36" fill="none" xmlns="http://www.w3.org/2000/svg">
<circle cx="18" cy="18" r="18" fill="white"/>
<path d="M22.7727 23.7C23.7831 22.9554 24.6221 21.9968 25.2317 20.8905C25.8414 19.7842 26.2071 18.5567 26.3035 17.2927C26.3999 16.0288 26.2248 14.7587 25.7903 13.5702C25.3558 12.3817 24.6722 11.3033 23.7869 10.4096C23.0155 9.62894 22.0979 9.01326 21.0882 8.59887C20.0785 8.18448 18.9973 7.97983 17.9084 7.99697C13.3872 8.06243 9.71591 11.939 9.72462 16.6387C9.72387 18.0182 10.0462 19.378 10.6649 20.6061C11.2837 21.8341 12.1812 22.895 13.2834 23.7013C13.3398 23.7446 13.3853 23.8009 13.4161 23.8655C13.4469 23.9301 13.4622 24.0012 13.4606 24.0729V25.1985C13.0482 25.44 12.7126 25.7965 12.4937 26.2258C12.2748 26.655 12.1816 27.139 12.2253 27.6204C12.269 28.1018 12.4477 28.5604 12.7402 28.9418C13.0327 29.3232 13.4268 29.6114 13.8757 29.7723V30.7599C13.8765 31.4304 14.1391 32.0733 14.606 32.5475C15.073 33.0217 15.706 33.2884 16.3664 33.2892H19.6873C20.3476 33.2884 20.9806 33.0217 21.4476 32.5475C21.9145 32.0733 22.1771 31.4304 22.1779 30.7599V29.7717C22.6268 29.6109 23.0209 29.3227 23.3134 28.9413C23.6059 28.5599 23.7847 28.1013 23.8283 27.6199C23.872 27.1385 23.7789 26.6545 23.5599 26.2252C23.341 25.796 23.0054 25.4394 22.593 25.1979V24.0729C22.5916 24.0007 22.6073 23.9292 22.6385 23.8644C22.6697 23.7995 22.7158 23.7432 22.7727 23.7ZM11.3855 16.6357C11.3784 12.8545 14.3154 9.73555 17.9326 9.68319C17.9637 9.68319 17.9957 9.68244 18.0273 9.68244C19.7497 9.6824 21.4019 10.376 22.6216 11.611C23.3343 12.3321 23.8847 13.2016 24.2346 14.1596C24.5845 15.1176 24.7257 16.1412 24.6484 17.1599C24.5711 18.1786 24.2771 19.1682 23.7867 20.0604C23.2964 20.9526 22.6214 21.7262 21.8082 22.3279C21.5362 22.5273 21.315 22.7896 21.1628 23.0931C21.0106 23.3967 20.9318 23.7326 20.933 24.0733V24.8582H15.1215V24.0729C15.1228 23.7326 15.0443 23.397 14.8923 23.0936C14.7404 22.7903 14.5195 22.5282 14.2479 22.3289C13.3604 21.6784 12.638 20.8229 12.1403 19.833C11.6426 18.8431 11.3839 17.7471 11.3855 16.6357ZM19.6877 31.603H16.3668C16.1467 31.6027 15.9357 31.5138 15.78 31.3557C15.6244 31.1977 15.5368 30.9834 15.5366 30.7599V29.9168H20.5179V30.7599C20.5176 30.9834 20.4301 31.1977 20.2745 31.3557C20.1188 31.5138 19.9078 31.6027 19.6877 31.603ZM21.3481 28.2306H14.7064C14.4862 28.2306 14.275 28.1417 14.1193 27.9836C13.9636 27.8255 13.8761 27.6111 13.8761 27.3875C13.8761 27.1639 13.9636 26.9494 14.1193 26.7913C14.275 26.6332 14.4862 26.5444 14.7064 26.5444H21.3481C21.5683 26.5444 21.7794 26.6332 21.9351 26.7913C22.0908 26.9494 22.1783 27.1639 22.1783 27.3875C22.1783 27.6111 22.0908 27.8255 21.9351 27.9836C21.7794 28.1417 21.5683 28.2306 21.3481 28.2306Z" fill="#09620C"/>
<path d="M19.2795 13.0831C19.7829 13.3146 20.232 13.6679 20.5932 14.1166C20.9543 14.5653 21.2182 15.0977 21.365 15.674C21.4249 15.8949 21.5618 16.081 21.7459 16.1922C21.9301 16.3035 22.1468 16.3308 22.3492 16.2684C22.5516 16.2059 22.7234 16.0588 22.8277 15.8586C22.9319 15.6585 22.96 15.4214 22.9061 15.1987C22.6926 14.366 22.31 13.5971 21.7868 12.9494C21.2638 12.3018 20.6137 11.7922 19.8855 11.4589C19.689 11.3708 19.4685 11.3719 19.2727 11.4618C19.0769 11.5518 18.9217 11.7234 18.8413 11.9388C18.7609 12.1541 18.7619 12.3957 18.844 12.6103C18.9262 12.8248 19.0827 12.9949 19.2792 13.083L19.2795 13.0831Z" fill="#09620C"/>
<path d="M18.782 5.25901V3.56021C18.782 3.33494 18.7025 3.11889 18.5609 2.9596C18.4194 2.80031 18.2274 2.71082 18.0272 2.71082C17.8271 2.71082 17.6351 2.80031 17.4935 2.9596C17.352 3.11889 17.2725 3.33494 17.2725 3.56021V5.25901C17.2725 5.48428 17.352 5.70033 17.4935 5.85962C17.6351 6.01892 17.8271 6.10841 18.0272 6.10841C18.2274 6.10841 18.4194 6.01892 18.5609 5.85962C18.7025 5.70033 18.782 5.48428 18.782 5.25901Z" fill="#09620C"/>
<path d="M13.3157 7.24097C13.4721 7.24071 13.6259 7.20352 13.7632 7.13282C13.9006 7.06211 14.0171 6.96011 14.1022 6.83606C14.1873 6.71201 14.2383 6.56984 14.2506 6.42244C14.2628 6.27504 14.236 6.12708 14.1725 5.99197L13.4086 4.37003C13.3073 4.15495 13.1198 3.98672 12.8873 3.90234C12.6548 3.81797 12.3964 3.82437 12.1689 3.92013C11.9414 4.01589 11.7634 4.19318 11.6742 4.41298C11.5849 4.63278 11.5917 4.8771 11.693 5.09218L12.4568 6.71412C12.5307 6.87109 12.6512 7.00443 12.8036 7.09794C12.9561 7.19144 13.1339 7.24112 13.3157 7.24097Z" fill="#09620C"/>
<path d="M9.2358 9.88353C9.41098 9.88361 9.58204 9.8351 9.72643 9.74442C9.87077 9.65374 9.98168 9.5252 10.0445 9.37571C10.1073 9.22621 10.119 9.06283 10.0781 8.90714C10.0372 8.75142 9.94561 8.61072 9.81541 8.50358L8.52848 7.44425C8.35775 7.30374 8.13299 7.23104 7.90362 7.24206C7.67421 7.25308 7.45903 7.34693 7.30537 7.50303C7.1517 7.65909 7.07215 7.86457 7.0842 8.07424C7.09626 8.28395 7.19894 8.48067 7.36966 8.62114L8.65663 9.67991C8.81536 9.81109 9.02179 9.88369 9.2358 9.88353Z" fill="#09620C"/>
<path d="M7.42264 13.8158C7.48594 13.5978 7.46922 13.3605 7.3762 13.1563C7.28317 12.952 7.12144 12.7975 6.92658 12.7267L5.45712 12.1926C5.36045 12.1567 5.25839 12.1425 5.15682 12.151C5.05525 12.1594 4.95617 12.1902 4.86528 12.2417C4.77439 12.2931 4.69349 12.3641 4.62724 12.4507C4.56098 12.5372 4.51067 12.6376 4.4792 12.746C4.44773 12.8544 4.43573 12.9686 4.44389 13.0822C4.45204 13.1958 4.48019 13.3065 4.52672 13.4079C4.57324 13.5093 4.63722 13.5994 4.71498 13.673C4.79273 13.7466 4.88273 13.8023 4.97979 13.8368L6.44925 14.3711C6.54573 14.4063 6.64747 14.4199 6.74865 14.411C6.84982 14.4022 6.94844 14.3711 7.03886 14.3196C7.12928 14.268 7.20972 14.197 7.27558 14.1106C7.34143 14.0242 7.39141 13.9241 7.42264 13.816V13.8158Z" fill="#09620C"/>
<path d="M6.14781 17.4387L4.45474 17.6531C4.34299 17.6663 4.23451 17.706 4.13555 17.7699C4.03658 17.8338 3.9491 17.9207 3.87812 18.0255C3.80715 18.1303 3.75409 18.251 3.72201 18.3806C3.68993 18.5102 3.67945 18.6461 3.69118 18.7806C3.70292 18.9152 3.73663 19.0455 3.79038 19.1643C3.84413 19.283 3.91686 19.3878 4.00437 19.4725C4.09188 19.5573 4.19244 19.6203 4.30027 19.6581C4.4081 19.6958 4.52106 19.7075 4.63265 19.6924L6.32582 19.478C6.54931 19.448 6.75388 19.3128 6.89486 19.1018C7.03584 18.8908 7.10177 18.6211 7.07826 18.3518C7.05474 18.0824 6.9437 17.8352 6.76937 17.6642C6.59503 17.4931 6.37158 17.412 6.14781 17.4387Z" fill="#09620C"/>
<path d="M29.4463 19.4792L31.3274 19.6936C31.5762 19.7207 31.8247 19.6398 32.0186 19.4688C32.2126 19.2977 32.3362 19.0504 32.3623 18.7808C32.3885 18.5112 32.3151 18.2414 32.1583 18.0303C32.0014 17.8192 31.7738 17.6841 31.5253 17.6544L29.6441 17.44C29.5201 17.4251 29.3947 17.4368 29.275 17.4746C29.1553 17.5124 29.0437 17.5755 28.9466 17.6602C28.8494 17.745 28.7687 17.8497 28.709 17.9684C28.6494 18.0871 28.612 18.2173 28.5989 18.3518C28.5859 18.4862 28.5975 18.6221 28.6331 18.7516C28.6687 18.8812 28.7275 19.0018 28.8063 19.1066C28.885 19.2113 28.9821 19.2982 29.092 19.3622C29.2018 19.4261 29.3222 19.4659 29.4463 19.4792Z" fill="#09620C"/>
<path d="M29.3677 14.4137C29.449 14.4136 29.5297 14.3992 29.6069 14.371L31.0782 13.8365C31.1749 13.8014 31.2644 13.7454 31.3416 13.6716C31.4188 13.5978 31.4823 13.5077 31.5285 13.4065C31.5746 13.3053 31.6024 13.1949 31.6104 13.0816C31.6183 12.9684 31.6063 12.8545 31.5749 12.7464C31.5435 12.6383 31.4934 12.5383 31.4274 12.4519C31.3615 12.3655 31.2809 12.2945 31.1904 12.2429C31.0999 12.1913 31.0012 12.1602 30.8999 12.1513C30.7987 12.1424 30.6968 12.1559 30.6002 12.1909L29.129 12.7255C28.9537 12.789 28.8044 12.9204 28.708 13.096C28.6116 13.2717 28.5745 13.4801 28.6033 13.6837C28.632 13.8873 28.7248 14.0727 28.865 14.2065C29.0052 14.3403 29.1834 14.4138 29.3677 14.4137Z" fill="#09620C"/>
<path d="M27.2135 9.68583L28.3424 8.62442C28.4922 8.48357 28.5822 8.28633 28.5927 8.07613C28.6033 7.86593 28.5335 7.65996 28.3986 7.50356C28.2638 7.34712 28.075 7.25308 27.8738 7.24206C27.6726 7.23103 27.4755 7.30397 27.3257 7.44482L26.1968 8.50656C26.0498 8.64813 25.9622 8.84455 25.953 9.0532C25.9437 9.26181 26.0135 9.46586 26.1473 9.62105C26.2811 9.77624 26.4681 9.87006 26.6677 9.88217C26.8672 9.89433 27.0634 9.82377 27.2135 9.68583Z" fill="#09620C"/>
<path d="M22.739 7.24097C22.9207 7.24105 23.0985 7.19133 23.2508 7.09782C23.4032 7.00431 23.5235 6.87101 23.5974 6.71412L24.3612 5.09218C24.4625 4.8771 24.4693 4.63278 24.38 4.41298C24.2908 4.19318 24.1129 4.01589 23.8853 3.92013C23.6578 3.82437 23.3994 3.81797 23.1669 3.90234C22.9344 3.98672 22.7469 4.15495 22.6456 4.37003L21.8818 5.99197C21.8182 6.12708 21.7914 6.27504 21.8037 6.42244C21.8159 6.56984 21.8669 6.71201 21.952 6.83606C22.0371 6.96011 22.1536 7.06211 22.291 7.13282C22.4283 7.20352 22.5822 7.24071 22.7386 7.24097H22.739Z" fill="#09620C"/>
</svg>
