<svg width="533" height="201" viewBox="0 0 533 201" fill="none" xmlns="http://www.w3.org/2000/svg">
<path d="M19.944 69L19.656 65.328H19.368C18.744 66.48 17.904 67.464 16.848 68.28C15.792 69.048 14.232 69.432 12.168 69.432C8.904 69.432 6.384 68.4 4.608 66.336C2.832 64.224 1.944 61.224 1.944 57.336V33.072C1.944 29.184 2.88 26.16 4.752 24C6.672 21.84 9.432 20.76 13.032 20.76C16.68 20.76 19.44 21.864 21.312 24.072C23.232 26.28 24.192 29.328 24.192 33.216V35.952H18.072V32.64C18.072 30.768 17.664 29.328 16.848 28.32C16.032 27.312 14.808 26.808 13.176 26.808C9.96 26.808 8.352 28.728 8.352 32.568V57.768C8.352 61.56 9.912 63.456 13.032 63.456C15.816 63.456 17.496 61.848 18.072 58.632V49.2H12.672V43.44H24.192V69H19.944ZM28.2443 69V34.44H34.0043L34.2203 40.344H34.5083C35.1803 38.328 36.1403 36.768 37.3883 35.664C38.6363 34.56 40.1723 34.008 41.9963 34.008C43.0043 34.008 43.9643 34.248 44.8763 34.728V40.416C44.1563 39.936 43.0763 39.696 41.6363 39.696C39.7163 39.696 38.1803 40.272 37.0283 41.424C35.8763 42.576 35.0123 44.688 34.4363 47.76V69H28.2443ZM69.885 58.632C69.885 65.832 66.237 69.432 58.941 69.432C55.293 69.432 52.581 68.568 50.805 66.84C49.077 65.064 48.213 62.328 48.213 58.632V44.808C48.213 41.16 49.077 38.448 50.805 36.672C52.581 34.896 55.317 34.008 59.013 34.008C66.261 34.008 69.885 37.608 69.885 44.808V53.376H54.261V58.776C54.261 62.232 55.821 63.96 58.941 63.96C62.157 63.96 63.765 62.232 63.765 58.776V57.048H69.885V58.632ZM63.765 44.664C63.765 41.208 62.181 39.48 59.013 39.48C55.845 39.48 54.261 41.208 54.261 44.664V48.768H63.765V44.664ZM95.76 58.632C95.76 65.832 92.112 69.432 84.816 69.432C81.168 69.432 78.456 68.568 76.68 66.84C74.952 65.064 74.088 62.328 74.088 58.632V44.808C74.088 41.16 74.952 38.448 76.68 36.672C78.456 34.896 81.192 34.008 84.888 34.008C92.136 34.008 95.76 37.608 95.76 44.808V53.376H80.136V58.776C80.136 62.232 81.696 63.96 84.816 63.96C88.032 63.96 89.64 62.232 89.64 58.776V57.048H95.76V58.632ZM89.64 44.664C89.64 41.208 88.056 39.48 84.888 39.48C81.72 39.48 80.136 41.208 80.136 44.664V48.768H89.64V44.664ZM115.803 69V44.376C115.803 41.112 114.315 39.48 111.339 39.48C109.899 39.48 108.795 39.864 108.027 40.632C107.307 41.4 106.683 42.696 106.155 44.52V69H99.963V34.44H105.723L105.939 39.408H106.227C106.995 37.536 107.979 36.168 109.179 35.304C110.427 34.44 111.963 34.008 113.787 34.008C116.235 34.008 118.227 34.8 119.763 36.384C121.299 37.92 122.067 40.2 122.067 43.224V69H115.803ZM142.04 69V27.024H134.048V21.192H156.584V27.024H148.448V69H142.04ZM175.78 69V44.376C175.78 42.696 175.396 41.472 174.628 40.704C173.86 39.888 172.78 39.48 171.388 39.48C169.804 39.48 168.556 40.032 167.644 41.136C166.732 42.192 166.228 44.016 166.132 46.608V69H159.94V20.616H166.132V38.76H166.42C167.092 37.128 168.052 35.928 169.3 35.16C170.548 34.392 172.06 34.008 173.836 34.008C175.372 34.008 176.644 34.272 177.652 34.8C178.708 35.328 179.548 36.048 180.172 36.96C180.844 37.824 181.324 38.832 181.612 39.984C181.9 41.088 182.044 42.24 182.044 43.44V69H175.78ZM207.908 58.632C207.908 65.832 204.26 69.432 196.964 69.432C193.316 69.432 190.604 68.568 188.828 66.84C187.1 65.064 186.236 62.328 186.236 58.632V44.808C186.236 41.16 187.1 38.448 188.828 36.672C190.604 34.896 193.34 34.008 197.036 34.008C204.284 34.008 207.908 37.608 207.908 44.808V53.376H192.284V58.776C192.284 62.232 193.844 63.96 196.964 63.96C200.18 63.96 201.788 62.232 201.788 58.776V57.048H207.908V58.632ZM201.788 44.664C201.788 41.208 200.204 39.48 197.036 39.48C193.868 39.48 192.284 41.208 192.284 44.664V48.768H201.788V44.664ZM220.475 69V21.192H233.507C236.819 21.192 239.147 22.032 240.491 23.712C241.883 25.392 242.579 27.744 242.579 30.768V35.664C242.579 40.128 240.971 42.744 237.755 43.512V43.8C239.579 44.136 240.947 44.904 241.859 46.104C242.771 47.256 243.227 49.128 243.227 51.72V60.792C243.227 63.528 242.555 65.592 241.211 66.984C239.915 68.328 237.659 69 234.443 69H220.475ZM236.819 51.288C236.819 49.608 236.459 48.408 235.739 47.688C235.067 46.968 233.915 46.608 232.283 46.608H226.811V63.384H232.499C234.035 63.384 235.139 63 235.811 62.232C236.483 61.464 236.819 60.312 236.819 58.776V51.288ZM236.531 31.704C236.531 30.072 236.219 28.848 235.595 28.032C235.019 27.216 233.915 26.808 232.283 26.808H226.811V41.208H232.355C233.603 41.208 234.611 40.848 235.379 40.128C236.147 39.408 236.531 38.136 236.531 36.312V31.704ZM246.846 69V34.44H252.606L252.822 40.344H253.11C253.782 38.328 254.742 36.768 255.99 35.664C257.238 34.56 258.774 34.008 260.598 34.008C261.606 34.008 262.566 34.248 263.478 34.728V40.416C262.758 39.936 261.678 39.696 260.238 39.696C258.318 39.696 256.782 40.272 255.63 41.424C254.478 42.576 253.614 44.688 253.038 47.76V69H246.846ZM280.885 49.992C280.165 50.52 279.493 50.88 278.869 51.072C278.245 51.264 277.261 51.552 275.917 51.936C273.901 52.56 272.605 53.256 272.029 54.024C271.453 54.792 271.165 55.848 271.165 57.192V60.288C271.165 62.736 272.533 63.96 275.269 63.96C276.709 63.96 277.861 63.624 278.725 62.952C279.637 62.28 280.357 61.248 280.885 59.856V49.992ZM281.317 69L281.101 64.608H280.813C280.045 65.952 279.037 67.104 277.789 68.064C276.589 68.976 274.861 69.432 272.605 69.432C269.869 69.432 267.925 68.736 266.773 67.344C265.621 65.952 265.045 64.08 265.045 61.728V58.272C265.045 56.784 265.213 55.512 265.549 54.456C265.885 53.352 266.413 52.44 267.133 51.72C267.853 50.952 268.789 50.304 269.941 49.776C271.141 49.2 272.581 48.672 274.261 48.192C275.029 47.952 275.797 47.736 276.565 47.544C277.381 47.304 278.101 47.064 278.725 46.824C279.349 46.536 279.853 46.2 280.237 45.816C280.621 45.432 280.813 44.952 280.813 44.376V42.936C280.813 40.584 279.325 39.408 276.349 39.408C273.085 39.408 271.453 40.704 271.453 43.296V45.528H265.621V42.576C265.621 39.696 266.581 37.56 268.501 36.168C270.469 34.728 273.205 34.008 276.709 34.008C283.573 34.008 287.005 36.696 287.005 42.072V69H281.317ZM291.143 69V34.44H297.335V69H291.143ZM291.143 30.192V22.416H297.335V30.192H291.143ZM317.319 69V44.376C317.319 41.112 315.831 39.48 312.855 39.48C311.415 39.48 310.311 39.864 309.543 40.632C308.823 41.4 308.199 42.696 307.671 44.52V69H301.479V34.44H307.239L307.455 39.408H307.743C308.511 37.536 309.495 36.168 310.695 35.304C311.943 34.44 313.479 34.008 315.303 34.008C317.751 34.008 319.743 34.8 321.279 36.384C322.815 37.92 323.583 40.2 323.583 43.224V69H317.319ZM336.139 69V21.192H342.619V69H336.139ZM362.459 69V44.376C362.459 41.112 360.971 39.48 357.995 39.48C356.555 39.48 355.451 39.864 354.683 40.632C353.963 41.4 353.339 42.696 352.811 44.52V69H346.619V34.44H352.379L352.595 39.408H352.883C353.651 37.536 354.635 36.168 355.835 35.304C357.083 34.44 358.619 34.008 360.443 34.008C362.891 34.008 364.883 34.8 366.419 36.384C367.955 37.92 368.723 40.2 368.723 43.224V69H362.459ZM388.252 45.096V43.08C388.252 41.832 387.892 40.872 387.172 40.2C386.452 39.528 385.276 39.192 383.644 39.192C380.476 39.192 378.892 40.32 378.892 42.576V43.656C378.892 44.376 379.036 44.976 379.324 45.456C379.66 45.888 380.356 46.44 381.412 47.112C383.044 48.12 384.652 48.936 386.236 49.56C387.82 50.184 389.308 50.976 390.7 51.936C391.9 52.752 392.812 53.664 393.436 54.672C394.108 55.68 394.444 57.072 394.444 58.848V60.432C394.444 63.456 393.58 65.712 391.852 67.2C390.172 68.688 387.484 69.432 383.788 69.432C379.852 69.432 376.996 68.64 375.22 67.056C373.492 65.424 372.628 63.072 372.628 60V57.912H378.532V60.216C378.532 61.608 378.892 62.64 379.612 63.312C380.38 63.984 381.676 64.32 383.5 64.32C385.18 64.32 386.404 64.008 387.172 63.384C387.94 62.76 388.324 61.8 388.324 60.504V59.136C388.324 58.416 388.132 57.744 387.748 57.12C387.412 56.496 386.596 55.824 385.3 55.104C385.204 55.056 384.748 54.84 383.932 54.456C383.164 54.024 382.276 53.544 381.268 53.016C380.308 52.44 379.324 51.864 378.316 51.288C377.356 50.712 376.612 50.232 376.084 49.848C374.932 48.984 374.116 48.048 373.636 47.04C373.204 46.032 372.988 44.928 372.988 43.728V42C372.988 39.6 373.876 37.68 375.652 36.24C377.476 34.752 380.068 34.008 383.428 34.008C387.028 34.008 389.692 34.848 391.42 36.528C393.196 38.208 394.084 40.488 394.084 43.368V45.096H388.252ZM413.419 49.272H418.747V58.632C418.747 62.28 418.051 64.992 416.659 66.768C415.267 68.544 412.747 69.432 409.099 69.432C405.355 69.432 402.619 68.544 400.891 66.768C399.163 64.992 398.299 62.28 398.299 58.632V24.864H404.419V34.44H418.747V39.984H404.419V58.632C404.419 62.088 406.003 63.816 409.171 63.816C410.707 63.816 411.787 63.408 412.411 62.592C413.083 61.728 413.419 60.408 413.419 58.632V49.272ZM422.979 69V34.44H429.171V69H422.979ZM422.979 30.192V22.416H429.171V30.192H422.979ZM448.435 49.272H453.763V58.632C453.763 62.28 453.067 64.992 451.675 66.768C450.283 68.544 447.763 69.432 444.115 69.432C440.371 69.432 437.635 68.544 435.907 66.768C434.179 64.992 433.315 62.28 433.315 58.632V24.864H439.435V34.44H453.763V39.984H439.435V58.632C439.435 62.088 441.019 63.816 444.187 63.816C445.723 63.816 446.803 63.408 447.427 62.592C448.099 61.728 448.435 60.408 448.435 58.632V49.272ZM464.258 34.44V58.632C464.258 60.6 464.618 61.992 465.338 62.808C466.058 63.576 467.186 63.96 468.722 63.96C470.258 63.96 471.362 63.552 472.034 62.736C472.754 61.92 473.33 60.456 473.762 58.344V34.44H479.954V69H474.122L473.978 64.032H473.69C472.874 66 471.866 67.392 470.666 68.208C469.514 69.024 467.978 69.432 466.058 69.432C463.082 69.432 460.994 68.52 459.794 66.696C458.594 64.824 457.994 62.112 457.994 58.56V34.44H464.258ZM499.271 49.272H504.599V58.632C504.599 62.28 503.903 64.992 502.511 66.768C501.119 68.544 498.599 69.432 494.951 69.432C491.207 69.432 488.471 68.544 486.743 66.768C485.015 64.992 484.151 62.28 484.151 58.632V24.864H490.271V34.44H504.599V39.984H490.271V58.632C490.271 62.088 491.855 63.816 495.023 63.816C496.559 63.816 497.639 63.408 498.263 62.592C498.935 61.728 499.271 60.408 499.271 58.632V49.272ZM530.502 58.632C530.502 65.832 526.854 69.432 519.558 69.432C515.91 69.432 513.198 68.568 511.422 66.84C509.694 65.064 508.83 62.328 508.83 58.632V44.808C508.83 41.16 509.694 38.448 511.422 36.672C513.198 34.896 515.934 34.008 519.63 34.008C526.878 34.008 530.502 37.608 530.502 44.808V53.376H514.878V58.776C514.878 62.232 516.438 63.96 519.558 63.96C522.774 63.96 524.382 62.232 524.382 58.776V57.048H530.502V58.632ZM524.382 44.664C524.382 41.208 522.798 39.48 519.63 39.48C516.462 39.48 514.878 41.208 514.878 44.664V48.768H524.382V44.664Z" fill="#09620C"/>
<rect x="175" y="76" width="358" height="43" fill="#09620C"/>
<path d="M256.344 108V88.272H249.144V84.096H268.584V88.272H261.348V108H256.344ZM281.21 108V97.02C281.21 95.676 280.97 94.764 280.49 94.284C280.034 93.78 279.266 93.528 278.186 93.528C277.61 93.528 277.094 93.648 276.638 93.888C276.182 94.104 275.798 94.416 275.486 94.824C275.174 95.208 274.934 95.664 274.766 96.192C274.622 96.696 274.55 97.248 274.55 97.848V108H269.87V83.808H274.55V92.592C274.718 92.208 274.97 91.848 275.306 91.512C275.666 91.152 276.074 90.852 276.53 90.612C276.986 90.372 277.49 90.18 278.042 90.036C278.594 89.892 279.17 89.82 279.77 89.82C281.594 89.82 283.07 90.324 284.198 91.332C285.35 92.316 285.926 93.696 285.926 95.472V108H281.21ZM288.083 108V90.288H292.763V108H288.083ZM288.083 88.164V83.808H292.763V88.164H288.083ZM306.241 108V97.272C306.241 95.904 306.013 94.98 305.557 94.5C305.101 94.02 304.321 93.78 303.217 93.78C300.793 93.78 299.581 95.136 299.581 97.848V108H294.901V90.288H299.365V92.88C299.917 91.872 300.649 91.116 301.561 90.612C302.473 90.084 303.649 89.82 305.089 89.82C305.929 89.82 306.709 89.952 307.429 90.216C308.149 90.456 308.761 90.828 309.265 91.332C309.793 91.836 310.201 92.46 310.489 93.204C310.801 93.924 310.957 94.764 310.957 95.724V108H306.241ZM323.878 108L319.99 100.044L317.722 102.384V108H313.006V83.808H317.722V97.02L323.554 90.288H329.278L323.338 96.804L329.134 108H323.878ZM352.52 91.152C352.4 89.928 351.956 89.016 351.188 88.416C350.42 87.816 349.28 87.516 347.768 87.516C346.352 87.516 345.284 87.756 344.564 88.236C343.844 88.716 343.484 89.412 343.484 90.324C343.484 91.092 343.76 91.704 344.312 92.16C344.888 92.616 345.848 93.012 347.192 93.348C348.56 93.684 349.856 94.02 351.08 94.356C352.328 94.668 353.396 95.028 354.284 95.436C354.812 95.676 355.304 95.952 355.76 96.264C356.216 96.576 356.612 96.96 356.948 97.416C357.284 97.872 357.548 98.412 357.74 99.036C357.932 99.66 358.028 100.392 358.028 101.232C358.028 102.552 357.788 103.692 357.308 104.652C356.852 105.588 356.192 106.368 355.328 106.992C354.488 107.616 353.48 108.072 352.304 108.36C351.152 108.672 349.88 108.828 348.488 108.828C347 108.828 345.644 108.66 344.42 108.324C343.196 108.012 342.14 107.52 341.252 106.848C340.364 106.176 339.668 105.348 339.164 104.364C338.66 103.356 338.396 102.18 338.372 100.836H343.196C343.244 102.06 343.736 103.032 344.672 103.752C345.632 104.448 346.916 104.796 348.524 104.796C350.012 104.796 351.152 104.508 351.944 103.932C352.76 103.332 353.168 102.492 353.168 101.412C353.168 101.052 353.108 100.728 352.988 100.44C352.892 100.152 352.7 99.888 352.412 99.648C352.148 99.384 351.776 99.156 351.296 98.964C350.816 98.748 350.204 98.556 349.46 98.388C347.972 98.052 346.712 97.764 345.68 97.524C344.672 97.26 343.748 96.936 342.908 96.552C341.612 95.976 340.616 95.232 339.92 94.32C339.248 93.384 338.912 92.16 338.912 90.648C338.912 89.568 339.092 88.584 339.452 87.696C339.812 86.784 340.352 86.004 341.072 85.356C341.816 84.708 342.728 84.204 343.808 83.844C344.912 83.484 346.196 83.304 347.66 83.304C349.172 83.304 350.516 83.496 351.692 83.88C352.868 84.264 353.852 84.804 354.644 85.5C355.46 86.196 356.084 87.024 356.516 87.984C356.972 88.944 357.224 90 357.272 91.152H352.52ZM370.897 108V105.516C369.697 107.484 367.861 108.468 365.389 108.468C364.501 108.468 363.685 108.312 362.941 108C362.221 107.688 361.597 107.244 361.069 106.668C360.541 106.092 360.121 105.408 359.809 104.616C359.521 103.824 359.377 102.936 359.377 101.952V90.288H364.057V101.232C364.057 103.44 365.053 104.544 367.045 104.544C368.245 104.544 369.145 104.172 369.745 103.428C370.369 102.66 370.681 101.688 370.681 100.512V90.288H375.325V108H370.897ZM388.033 95.652C387.913 94.788 387.601 94.188 387.097 93.852C386.593 93.492 385.801 93.312 384.721 93.312C383.833 93.312 383.149 93.432 382.669 93.672C382.189 93.888 381.949 94.26 381.949 94.788C381.949 95.316 382.189 95.724 382.669 96.012C383.149 96.276 383.869 96.54 384.829 96.804C385.837 97.092 386.797 97.356 387.709 97.596C388.621 97.812 389.425 98.052 390.121 98.316C391.057 98.7 391.777 99.228 392.281 99.9C392.785 100.548 393.037 101.448 393.037 102.6C393.037 104.448 392.377 105.888 391.057 106.92C389.761 107.952 387.841 108.468 385.297 108.468C382.561 108.468 380.461 107.892 378.997 106.74C377.557 105.588 376.813 104.112 376.765 102.312H381.589C381.589 103.152 381.913 103.8 382.561 104.256C383.209 104.712 384.109 104.94 385.261 104.94C386.101 104.94 386.833 104.808 387.457 104.544C388.081 104.256 388.393 103.776 388.393 103.104C388.393 102.48 388.105 102.036 387.529 101.772C386.977 101.508 386.317 101.28 385.549 101.088C384.061 100.728 382.861 100.404 381.949 100.116C381.037 99.828 380.269 99.48 379.645 99.072C378.805 98.544 378.217 97.944 377.881 97.272C377.569 96.6 377.413 95.868 377.413 95.076C377.413 94.332 377.545 93.636 377.809 92.988C378.073 92.34 378.505 91.788 379.105 91.332C379.705 90.852 380.473 90.48 381.409 90.216C382.369 89.952 383.521 89.82 384.865 89.82C387.433 89.82 389.317 90.312 390.517 91.296C391.741 92.28 392.413 93.732 392.533 95.652H388.033ZM404.191 96.336H408.547V101.376C408.547 102.312 408.403 103.212 408.115 104.076C407.851 104.916 407.419 105.672 406.819 106.344C406.243 106.992 405.499 107.508 404.587 107.892C403.699 108.276 402.631 108.468 401.383 108.468C400.087 108.468 398.983 108.276 398.071 107.892C397.159 107.508 396.403 106.992 395.803 106.344C395.227 105.696 394.807 104.94 394.543 104.076C394.279 103.212 394.147 102.3 394.147 101.34V85.5H398.755V90.288H408.547V93.6H398.755V100.872C398.755 102 398.959 102.876 399.367 103.5C399.799 104.1 400.495 104.4 401.455 104.4C402.391 104.4 403.075 104.1 403.507 103.5C403.963 102.9 404.191 102.048 404.191 100.944V96.336ZM421.223 99.324C420.983 99.564 420.635 99.756 420.179 99.9C419.723 100.044 419.063 100.2 418.199 100.368C416.855 100.632 415.931 100.968 415.427 101.376C414.923 101.784 414.671 102.372 414.671 103.14C414.671 104.46 415.427 105.12 416.939 105.12C417.539 105.12 418.091 105.024 418.595 104.832C419.123 104.616 419.567 104.34 419.927 104.004C420.311 103.644 420.611 103.236 420.827 102.78C421.067 102.3 421.187 101.796 421.187 101.268L421.223 99.324ZM421.547 108C421.403 107.544 421.307 107.016 421.259 106.416C420.707 107.04 419.975 107.544 419.063 107.928C418.151 108.288 417.095 108.468 415.895 108.468C413.855 108.468 412.355 108.024 411.395 107.136C410.459 106.224 409.991 105.048 409.991 103.608C409.991 102.336 410.195 101.328 410.603 100.584C411.011 99.816 411.575 99.216 412.295 98.784C413.015 98.352 413.867 98.04 414.851 97.848C415.859 97.632 416.951 97.44 418.127 97.272C419.303 97.104 420.095 96.888 420.503 96.624C420.911 96.336 421.115 95.88 421.115 95.256C421.115 94.68 420.839 94.236 420.287 93.924C419.759 93.588 419.039 93.42 418.127 93.42C417.047 93.42 416.267 93.66 415.787 94.14C415.331 94.62 415.043 95.256 414.923 96.048H410.567C410.591 95.136 410.735 94.296 410.999 93.528C411.287 92.76 411.731 92.1 412.331 91.548C412.955 90.996 413.759 90.576 414.743 90.288C415.727 89.976 416.927 89.82 418.343 89.82C419.735 89.82 420.911 89.976 421.871 90.288C422.855 90.6 423.635 91.056 424.211 91.656C424.811 92.232 425.243 92.964 425.507 93.852C425.771 94.716 425.903 95.7 425.903 96.804V108H421.547ZM428.075 108V90.288H432.755V108H428.075ZM428.075 88.164V83.808H432.755V88.164H428.075ZM446.233 108V97.272C446.233 95.904 446.005 94.98 445.549 94.5C445.093 94.02 444.313 93.78 443.209 93.78C440.785 93.78 439.573 95.136 439.573 97.848V108H434.893V90.288H439.357V92.88C439.909 91.872 440.641 91.116 441.553 90.612C442.465 90.084 443.641 89.82 445.081 89.82C445.921 89.82 446.701 89.952 447.421 90.216C448.141 90.456 448.753 90.828 449.257 91.332C449.785 91.836 450.193 92.46 450.481 93.204C450.793 93.924 450.949 94.764 450.949 95.724V108H446.233ZM463.763 99.324C463.523 99.564 463.175 99.756 462.719 99.9C462.263 100.044 461.603 100.2 460.739 100.368C459.395 100.632 458.471 100.968 457.967 101.376C457.463 101.784 457.211 102.372 457.211 103.14C457.211 104.46 457.967 105.12 459.479 105.12C460.079 105.12 460.631 105.024 461.135 104.832C461.663 104.616 462.107 104.34 462.467 104.004C462.851 103.644 463.151 103.236 463.367 102.78C463.607 102.3 463.727 101.796 463.727 101.268L463.763 99.324ZM464.087 108C463.943 107.544 463.847 107.016 463.799 106.416C463.247 107.04 462.515 107.544 461.603 107.928C460.691 108.288 459.635 108.468 458.435 108.468C456.395 108.468 454.895 108.024 453.935 107.136C452.999 106.224 452.531 105.048 452.531 103.608C452.531 102.336 452.735 101.328 453.143 100.584C453.551 99.816 454.115 99.216 454.835 98.784C455.555 98.352 456.407 98.04 457.391 97.848C458.399 97.632 459.491 97.44 460.667 97.272C461.843 97.104 462.635 96.888 463.043 96.624C463.451 96.336 463.655 95.88 463.655 95.256C463.655 94.68 463.379 94.236 462.827 93.924C462.299 93.588 461.579 93.42 460.667 93.42C459.587 93.42 458.807 93.66 458.327 94.14C457.871 94.62 457.583 95.256 457.463 96.048H453.107C453.131 95.136 453.275 94.296 453.539 93.528C453.827 92.76 454.271 92.1 454.871 91.548C455.495 90.996 456.299 90.576 457.283 90.288C458.267 89.976 459.467 89.82 460.883 89.82C462.275 89.82 463.451 89.976 464.411 90.288C465.395 90.6 466.175 91.056 466.751 91.656C467.351 92.232 467.783 92.964 468.047 93.852C468.311 94.716 468.443 95.7 468.443 96.804V108H464.087ZM478.894 104.652C480.07 104.652 481.03 104.16 481.774 103.176C482.518 102.168 482.89 100.872 482.89 99.288C482.89 95.64 481.546 93.816 478.858 93.816C476.242 93.816 474.934 95.736 474.934 99.576C474.934 101.088 475.306 102.312 476.05 103.248C476.818 104.184 477.766 104.652 478.894 104.652ZM470.506 108V83.808H475.114V92.592C476.434 90.744 478.186 89.82 480.37 89.82C481.522 89.82 482.542 90.048 483.43 90.504C484.342 90.936 485.11 91.56 485.734 92.376C486.358 93.192 486.826 94.164 487.138 95.292C487.474 96.396 487.642 97.62 487.642 98.964C487.642 100.452 487.45 101.784 487.066 102.96C486.682 104.136 486.154 105.132 485.482 105.948C484.81 106.764 483.994 107.388 483.034 107.82C482.098 108.252 481.078 108.468 479.974 108.468C477.766 108.468 476.122 107.592 475.042 105.84L475.006 108H470.506ZM489.385 108V83.808H494.065V108H489.385ZM507.298 105.66C506.962 106.452 506.35 107.076 505.462 107.532C504.598 107.964 503.614 108.18 502.51 108.18C501.574 108.18 500.71 108.036 499.918 107.748C499.126 107.436 498.442 107.004 497.866 106.452C497.29 105.876 496.834 105.204 496.498 104.436C496.186 103.644 496.03 102.756 496.03 101.772V90.288H500.71V101.088C500.71 103.296 501.706 104.4 503.698 104.4C504.778 104.4 505.642 104.088 506.29 103.464C506.962 102.84 507.298 102.048 507.298 101.088V90.288H511.978V108.468C511.978 109.716 511.762 110.832 511.33 111.816C510.922 112.8 510.346 113.628 509.602 114.3C508.882 114.972 508.018 115.488 507.01 115.848C506.026 116.208 504.97 116.388 503.842 116.388C501.226 116.388 499.27 115.728 497.974 114.408C496.678 113.088 496.03 111.276 496.03 108.972H500.386C500.386 110.028 500.686 110.856 501.286 111.456C501.91 112.056 502.834 112.356 504.058 112.356C504.49 112.356 504.898 112.26 505.282 112.068C505.666 111.9 506.002 111.648 506.29 111.312C506.602 111 506.842 110.604 507.01 110.124C507.202 109.644 507.298 109.116 507.298 108.54V105.66Z" fill="white"/>
<g clip-path="url(#clip0)">
<path d="M235.772 118.233C235.856 118.057 235.92 117.873 235.964 117.682C237.451 111.268 234.428 106.961 231.825 104.921C231.234 100.11 226.699 97.0327 222.988 95.5471C222.61 91.0156 220.89 87.3359 217.858 84.589C212.897 80.0944 205.79 79.488 202.314 79.488C202.278 79.488 202.244 79.488 202.208 79.488C198.822 73.7004 191.074 73.433 186.556 74.2721C183.906 73.3667 181.234 72.6465 178.605 72.1275C177.14 71.839 175.716 72.7908 175.426 74.2574C175.137 75.723 176.091 77.1464 177.557 77.4359C180.167 77.9518 182.831 78.6878 185.471 79.6238C185.96 79.7985 186.489 79.827 186.994 79.708C187.085 79.6869 196.014 77.657 197.972 83.1687C198.388 84.3363 199.548 85.0712 200.782 84.9554C200.868 84.947 209.389 84.1984 214.241 88.6141C215.948 90.1681 217.001 92.1727 217.432 94.6964C213.782 94.8712 208.088 96.1536 205.124 102.022C204.45 103.356 204.984 104.983 206.318 105.658C206.71 105.855 207.127 105.948 207.536 105.948C208.525 105.948 209.478 105.405 209.954 104.463C212.449 99.5248 218.649 100.021 219.775 100.155C220.775 100.484 226.708 102.599 226.469 106.225C226.398 107.299 226.971 108.313 227.928 108.807C227.937 108.811 228.898 109.351 229.73 110.485C230.824 111.974 231.183 113.803 230.802 115.927L230.62 116.169C226.42 116.631 220.104 119.273 219.242 127.085C219.079 128.571 220.149 129.908 221.635 130.072C221.736 130.083 221.836 130.088 221.935 130.088C223.296 130.088 224.468 129.064 224.621 127.679C225.167 122.729 229.419 121.744 231.252 121.551C243.108 130.247 234.739 150.528 234.185 151.828C231.25 157.44 227.566 160.311 222.948 160.573C220.969 158.919 215.786 155.242 206.73 153.072C205.276 152.723 203.815 153.619 203.467 155.072C203.12 156.526 204.014 157.987 205.468 158.334C213.207 160.188 217.625 163.234 219.255 164.544C219.233 165.286 219.136 166.02 218.956 166.733C217.031 174.378 206.682 178.389 195.886 175.67C194.1 175.22 192.369 174.6 190.742 173.826C189.942 173.445 189.006 173.48 188.236 173.921C187.468 174.36 186.962 175.149 186.885 176.031C186.575 179.534 186.726 182.909 187.33 186.099L180.225 187.28C179.922 186.204 179.618 184.946 179.288 183.578C177.701 177.003 175.407 167.518 168.665 159.735C174.278 158.369 179.678 157.467 184.767 157.049C186.257 156.926 187.366 155.62 187.243 154.131C187.12 152.641 185.813 151.535 184.325 151.656C177.598 152.207 170.386 153.553 162.886 155.653C156.01 156.584 151.194 156.212 150.655 156.164C138.926 154.402 135.651 147.315 136.413 141.774C136.535 140.886 136.21 139.995 135.544 139.395C134.879 138.795 133.961 138.564 133.09 138.776L131.129 139.256C127.708 139.087 119.158 137.762 115.309 133.281C113.638 131.334 112.997 128.982 113.354 126.09C113.491 124.974 112.925 123.89 111.931 123.367C111.919 123.36 110.767 122.667 110.484 121.444C110.147 119.988 111.124 118.245 112.004 117.039C112.535 116.309 112.668 115.362 112.357 114.514C112.336 114.457 110.341 108.701 112.619 103.924C113.887 101.265 116.317 99.3048 119.843 98.0982C120.864 97.7486 121.578 96.8442 121.662 95.7682C121.666 95.7335 122.01 92.3022 124.509 90.4387C126.236 89.1521 128.727 88.8226 131.912 89.4595C132.634 89.6027 133.383 89.448 133.987 89.0279C134.591 88.6078 134.999 87.9603 135.115 87.2327C135.124 87.1738 136.336 81.5431 146.893 81.3431C148.494 83.5299 152.028 89.2753 149.406 94.4227C148.728 95.7545 149.259 97.3844 150.59 98.0624C150.983 98.2624 151.402 98.3572 151.815 98.3572C152.801 98.3572 153.751 97.8171 154.229 96.879C155.204 94.9639 155.653 93.0434 155.745 91.1894C157.206 90.5682 159.48 89.9007 161.295 90.4408C162.475 90.7903 163.383 91.6474 164.07 93.0582C164.539 94.0205 165.502 94.5796 166.506 94.5796C166.902 94.5796 167.307 94.4911 167.689 94.3048C169.032 93.6509 169.59 92.0306 168.936 90.6872C167.585 87.916 165.476 86.0367 162.835 85.2523C160.023 84.4174 157.161 84.9502 155.044 85.664C154.338 83.2487 153.227 81.1504 152.25 79.6059C153.524 79.051 155.244 78.4046 157.363 77.8476C158.808 77.4686 159.673 75.9883 159.292 74.5438C158.912 73.0971 157.432 72.2348 155.988 72.6139C151.711 73.7373 148.781 75.1986 147.482 75.924C136.522 75.9262 132.286 80.7135 130.691 83.8131C126.914 83.4562 123.733 84.2384 121.211 86.1473C118.27 88.3719 117.066 91.5737 116.581 93.5509C112.424 95.2923 109.451 97.9929 107.734 101.594C105.242 106.821 106.202 112.445 106.86 114.992C105.205 117.663 104.65 120.24 105.213 122.665C105.689 124.723 106.865 126.154 107.855 127.04C107.73 130.788 108.852 134.068 111.203 136.806C117.032 143.592 128.649 144.541 130.943 144.663C131.534 152.209 137.278 159.654 149.934 161.527C149.974 161.534 150.015 161.539 150.056 161.543C150.168 161.555 151.57 161.692 153.938 161.692C156.088 161.692 159.038 161.578 162.543 161.153C170.007 168.209 172.323 177.784 174.027 184.848C174.648 187.419 175.184 189.641 175.883 191.353C176.303 192.382 177.303 193.035 178.387 193.035C178.534 193.035 178.683 193.023 178.832 192.998L191.076 190.961C191.838 190.834 192.51 190.387 192.922 189.733C193.333 189.079 193.446 188.28 193.23 187.538C192.563 185.236 192.2 182.783 192.147 180.212C192.941 180.478 193.748 180.712 194.564 180.918C201.055 182.552 207.664 182.197 213.174 179.918C218.963 177.523 222.88 173.31 224.203 168.054C224.385 167.328 224.512 166.588 224.588 165.842C229.207 165.2 234.767 162.451 239.03 154.24C239.056 154.191 239.079 154.143 239.101 154.093C239.218 153.831 241.975 147.571 242.782 139.936C243.778 130.502 241.36 123.063 235.772 118.233Z" fill="#09620C"/>
<path d="M167.941 110.282C167.969 110.439 168.672 114.168 171.259 117.828C171.876 118.7 172.632 119.612 173.546 120.486C173.06 123.266 168.808 124.787 168.708 124.822C167.297 125.303 166.541 126.835 167.017 128.248C167.398 129.377 168.451 130.09 169.581 130.09C169.868 130.09 170.16 130.044 170.447 129.947C172.948 129.104 176.583 127.003 178.19 123.628C180.294 124.577 182.83 125.192 185.876 125.192C186.07 125.192 186.267 125.189 186.465 125.185C187.959 125.146 189.139 123.905 189.1 122.411C189.063 120.94 187.86 119.773 186.396 119.773C186.373 119.773 186.35 119.774 186.327 119.774C175.47 120.047 173.353 109.772 173.262 109.301C172.989 107.836 171.583 106.865 170.116 107.135C168.646 107.402 167.672 108.812 167.941 110.282Z" fill="#09620C"/>
<path d="M200.93 134.04C205.628 125.831 203.772 119.484 201.39 115.604C198.872 111.507 195.245 109.349 195.093 109.259C193.807 108.506 192.162 108.935 191.401 110.215C190.641 111.497 191.065 113.154 192.343 113.92C192.37 113.936 195.085 115.587 196.871 118.59C199.125 122.38 198.909 126.674 196.232 131.353C195.49 132.65 195.94 134.303 197.237 135.045C197.661 135.288 198.123 135.403 198.578 135.403C199.518 135.403 200.43 134.914 200.93 134.04Z" fill="#09620C"/>
<path d="M229.608 140.365C230.824 139.496 231.107 137.806 230.238 136.59C229.369 135.374 227.68 135.092 226.464 135.961C223.825 137.845 221.425 138.554 219.328 138.065C216.17 137.332 214.376 134.089 214.334 134.013C213.639 132.698 212.012 132.191 210.691 132.879C209.365 133.571 208.851 135.205 209.543 136.529C209.649 136.733 211.994 141.132 216.676 142.901C215.838 146.211 215.304 152.053 220.196 156.143C220.702 156.566 221.317 156.774 221.93 156.774C222.704 156.774 223.471 156.443 224.007 155.804C224.965 154.657 224.814 152.951 223.667 151.992C220.681 149.494 221.52 145.396 222.109 143.541C224.553 143.242 227.063 142.183 229.608 140.365Z" fill="#09620C"/>
<path d="M149.947 122.987C149.76 121.505 148.406 120.457 146.923 120.644C145.44 120.831 144.39 122.186 144.579 123.669C145.049 127.372 142.144 130.067 140.423 131.317C136.093 129.173 131.243 129.99 131.002 130.032C129.536 130.291 128.56 131.687 128.812 133.155C129.065 134.623 130.463 135.609 131.932 135.364C131.978 135.355 136.546 134.624 139.279 136.993C140.839 138.345 141.594 140.608 141.521 143.717C141.487 145.211 142.67 146.45 144.164 146.485C144.185 146.486 144.206 146.486 144.228 146.486C145.693 146.486 146.897 145.316 146.932 143.843C147.017 140.205 146.242 137.21 144.626 134.903C147.278 132.701 150.672 128.7 149.947 122.987Z" fill="#09620C"/>
<path d="M124.502 108.803C124.208 109.506 123.762 110.135 123.199 110.708C121.731 112.204 119.888 112.76 119.819 112.781C118.387 113.178 117.542 114.656 117.929 116.094C118.254 117.3 119.347 118.095 120.539 118.095C120.773 118.095 121.01 118.064 121.247 118C121.417 117.954 124.816 117.005 127.441 114.087C129.247 115.428 131.37 116.128 133.696 116.128C134.343 116.128 135.005 116.075 135.681 115.965C138.747 115.471 141.043 114.026 141.295 113.863C142.549 113.05 142.907 111.375 142.094 110.121C141.281 108.867 139.606 108.509 138.351 109.322C138.337 109.331 136.762 110.309 134.821 110.623C132.871 110.938 131.332 110.493 130.063 109.234C130.676 106.902 130.602 104.304 129.833 101.47C129.442 100.028 127.956 99.1762 126.513 99.5679C125.071 99.9596 124.219 101.445 124.611 102.888C125.232 105.179 125.215 107.095 124.553 108.685C124.536 108.724 124.519 108.762 124.502 108.803Z" fill="#09620C"/>
<path d="M187.825 85.7851C183.254 83.074 178.002 84.4743 177.781 84.5353C176.34 84.9322 175.494 86.422 175.891 87.8623C176.287 89.3027 177.778 90.1481 179.218 89.7533C179.249 89.7438 182.492 88.9131 185.063 90.4387C186.593 91.3462 187.649 93.0024 188.204 95.3597C188.498 96.6063 189.608 97.4465 190.836 97.4465C191.041 97.4465 191.249 97.4223 191.457 97.3739C192.912 97.0317 193.815 95.5745 193.471 94.1205C192.567 90.2765 190.668 87.4717 187.825 85.7851Z" fill="#09620C"/>
<path d="M178.023 136.802C176.095 140.114 173.309 141.888 169.744 142.075C166.88 142.223 164.52 141.3 164.462 141.276C163.083 140.711 161.508 141.368 160.938 142.745C160.366 144.127 161.022 145.709 162.403 146.28C162.721 146.411 165.466 147.503 169.101 147.503C169.324 147.503 169.552 147.499 169.782 147.49C173.645 147.343 179.023 145.842 182.701 139.524C183.452 138.233 183.014 136.576 181.723 135.824C180.432 135.072 178.775 135.51 178.023 136.802Z" fill="#09620C"/>
<path d="M197.615 152.672C196.976 151.719 195.78 151.262 194.664 151.563C193.585 151.853 192.786 152.799 192.672 153.91C192.557 155.032 193.19 156.141 194.208 156.62C195.201 157.086 196.412 156.904 197.213 156.15C198.171 155.25 198.344 153.76 197.615 152.672Z" fill="#09620C"/>
<path d="M164.886 74.8207C165.316 75.8609 166.391 76.5432 167.514 76.4895C168.614 76.4358 169.592 75.6977 169.945 74.6554C170.304 73.6015 169.962 72.4033 169.102 71.6958C168.193 70.9483 166.863 70.8809 165.884 71.5358C164.826 72.2443 164.399 73.6404 164.886 74.8207Z" fill="#09620C"/>
</g>
<defs>
<clipPath id="clip0">
<rect width="138" height="138" fill="white" transform="translate(105 63)"/>
</clipPath>
</defs>
</svg>
