<svg width="100" height="100" viewBox="0 0 100 100" fill="none" xmlns="http://www.w3.org/2000/svg">
<circle cx="50" cy="50" r="50" fill="white"/>
<path d="M73.0051 80.5151C70.947 80.5151 68.9994 80.1255 67.1617 79.3456C65.3241 78.566 63.7191 77.4941 62.3471 76.1297C60.9753 74.7653 59.8974 73.1696 59.1131 71.3424C58.3292 69.5151 57.937 67.5785 57.937 65.5317C57.937 63.4852 58.3292 61.5485 59.1131 59.7212C59.8973 57.8939 60.9754 56.31 62.3471 54.9704C63.7191 53.6303 65.324 52.5704 67.1617 51.7909C68.9993 51.0111 70.947 50.6212 73.0051 50.6212C75.0632 50.6212 77.011 51.011 78.8486 51.7909C80.6862 52.5704 82.2787 53.6303 83.6262 54.9704C84.9739 56.3102 86.0396 57.8941 86.8237 59.7212C87.6077 61.5485 88 63.4851 88 65.5317C88 67.5785 87.6077 69.5151 86.8237 71.3424C86.0397 73.1698 84.9739 74.7653 83.6262 76.1297C82.2785 77.4941 80.6862 78.5661 78.8486 79.3456C77.011 80.1255 75.0633 80.5151 73.0051 80.5151ZM80.4289 63.1198H74.9897V58.0767C74.9897 57.3943 74.7695 56.8097 74.3283 56.3223C73.8872 55.8351 73.3237 55.5915 72.6375 55.5915C71.9517 55.5915 71.4126 55.8351 71.0207 56.3223C70.6288 56.8098 70.4326 57.3943 70.4326 58.0767V63.1198H65.6549C64.969 63.1198 64.381 63.3632 63.891 63.8508C63.4009 64.3379 63.156 64.9228 63.156 65.6048C63.156 66.2868 63.4009 66.7987 63.891 67.1399C64.3811 67.4809 64.969 67.6512 65.6549 67.6512H70.4326V72.8407C70.4326 73.5231 70.6288 74.1076 71.0207 74.5949C71.4126 75.0824 71.9517 75.3257 72.6375 75.3257C73.3237 75.3257 73.8871 75.0823 74.3283 74.5949C74.7694 74.1076 74.9897 73.5231 74.9897 72.8407V67.6512H80.4289V67.7976C81.115 67.7976 81.703 67.6028 82.1929 67.2131C82.6832 66.8231 82.9279 66.287 82.9279 65.6049C82.9279 64.923 82.6832 64.338 82.1929 63.8509C81.703 63.3632 81.115 63.1198 80.4289 63.1198ZM62.274 44.9206C62.0779 45.7001 61.8817 46.4066 61.6857 47.0401C61.4898 47.5761 61.2446 48.1243 60.9508 48.6846C60.6567 49.2449 60.3384 49.6714 59.9954 49.9637C59.5543 50.3048 59.2481 50.6703 59.0765 51.06C58.905 51.4497 58.7578 51.8514 58.6354 52.2659C58.513 52.6801 58.3781 53.1062 58.2314 53.5449C58.0841 53.9835 57.8391 54.4221 57.4964 54.8605C56.369 56.3221 55.5237 57.7354 54.9603 59.0997C54.3968 60.464 54.0048 61.7796 53.7842 63.0467C53.5638 64.3135 53.5024 65.5685 53.6003 66.8106C53.6984 68.0533 53.8943 69.2593 54.1885 70.4286C54.3845 71.3056 54.6784 72.2192 55.0703 73.1695C55.4626 74.1195 56.0383 75.0942 56.7976 76.0932C57.5571 77.092 58.525 78.0663 59.7012 79.0167C60.8771 79.9668 62.347 80.8803 64.1114 81.7576C62.9352 82.001 61.5631 82.2205 59.9951 82.4154C58.6719 82.5618 57.0427 82.6955 55.1074 82.8171C53.1717 82.9394 50.9542 83 48.4552 83C47.1811 83 45.6989 82.9514 44.0084 82.8539C42.3177 82.7564 40.5784 82.6346 38.7897 82.4885C37.0013 82.3422 35.2369 82.1717 33.4974 81.9768C31.7582 81.7819 30.1653 81.5748 28.7197 81.3554C27.2743 81.1364 26.049 80.9047 25.0445 80.661C24.0403 80.4175 23.4154 80.1982 23.1703 80.0034C22.7293 79.6133 22.3865 78.5291 22.1414 76.7507C21.8963 74.9726 21.9699 72.6456 22.3618 69.7707C22.6068 68.1627 23.2561 66.9324 24.3096 66.0795C25.3632 65.2269 26.6004 64.5571 28.0217 64.0695C29.4425 63.5823 30.9249 63.1316 32.4684 62.7173C34.012 62.3033 35.372 61.7309 36.5481 61C37.4791 60.4153 38.1897 59.8669 38.6795 59.3554C39.1694 58.8436 39.5125 58.32 39.7084 57.7838C39.9044 57.2482 40.0025 56.6875 40.0025 56.1029C40.0025 55.5183 39.978 54.8848 39.929 54.2024C39.8308 53.1792 39.476 52.3751 38.8633 51.7906C38.2507 51.2057 37.6014 50.621 36.9155 50.0365C36.5232 49.7439 36.1805 49.3057 35.8862 48.7208C35.5922 48.1363 35.3474 47.5758 35.1512 47.0399C34.9064 46.4063 34.7104 45.6998 34.5633 44.9203C34.2202 44.8229 33.9019 44.6767 33.6079 44.4817C33.3628 44.2869 33.0932 43.9942 32.7992 43.6044C32.5053 43.2148 32.2357 42.6301 31.9906 41.8503C31.7455 41.1194 31.6597 40.4374 31.7334 39.804C31.8068 39.1704 31.9418 38.6345 32.1378 38.1958C32.3338 37.6598 32.6033 37.1968 32.9461 36.8072C32.9461 35.1505 33.0444 33.4939 33.2405 31.8368C33.4365 30.424 33.7426 28.9132 34.1593 27.3056C34.5757 25.6974 35.2496 24.2599 36.1807 22.9934C37.0625 21.775 38.006 20.776 39.0102 19.9966C40.0148 19.2169 41.0562 18.608 42.1341 18.1694C43.2121 17.7307 44.2902 17.4264 45.3684 17.2557C46.4462 17.0853 47.4754 17 48.4555 17C49.7295 17 50.9544 17.1464 52.1305 17.4387C53.3066 17.7309 54.3968 18.1207 55.4015 18.6082C56.4062 19.0953 57.3004 19.6436 58.0843 20.2527C58.8685 20.8616 59.5055 21.4828 59.9955 22.1163C61.1224 23.5292 61.9432 25.0887 62.458 26.7939C62.9724 28.4995 63.352 30.1073 63.5971 31.6179C63.8422 33.372 63.9403 35.126 63.8912 36.8806C64.1852 37.124 64.4303 37.4163 64.6261 37.7575C64.822 38.0497 64.9692 38.4399 65.0672 38.927C65.1654 39.4141 65.1654 40.0233 65.0672 40.7542C64.9692 41.68 64.7732 42.4109 64.4794 42.947C64.1851 43.4831 63.8669 43.897 63.5237 44.1897C63.1314 44.5305 62.7147 44.7742 62.274 44.9206Z" fill="#09620C"/>
</svg>
